<svg id="Group_32" data-name="Group 32" xmlns="http://www.w3.org/2000/svg" xmlns:xlink="http://www.w3.org/1999/xlink" width="92" height="63.161" viewBox="0 0 92 63.161">
  <defs>
    <clipPath id="clip-path">
      <rect id="Rectangle_133" data-name="Rectangle 133" width="92" height="63.161" fill="none"/>
    </clipPath>
  </defs>
  <g id="Group_32-2" data-name="Group 32" clip-path="url(#clip-path)">
    <path id="Path_8" data-name="Path 8" d="M159.818.285V16.878c0,4.4-2.533,7.01-6.569,7.01-3.67,0-5.8-2.092-5.8-6.2V.285h-2.606V17.942c0,5.542,3.23,8.294,8.148,8.294a7.678,7.678,0,0,0,6.936-3.707v3.523h2.5V.285Z" transform="translate(-70.424 -0.139)" fill="#003526"/>
    <path id="Path_9" data-name="Path 9" d="M15.634,15.082h3.817v-2.5H.147v2.605h3.67A8.433,8.433,0,0,0,0,22.532c0,5.505,3.964,9.616,9.8,9.616s9.836-4.11,9.836-9.616a8.362,8.362,0,0,0-4-7.45M9.8,29.5c-4.514,0-7.524-3.083-7.524-7.193,0-4.074,3.009-7.157,7.524-7.157s7.524,3.083,7.524,7.157c0,4.11-3.009,7.193-7.524,7.193" transform="translate(0 -6.119)" fill="#003526"/>
    <path id="Path_10" data-name="Path 10" d="M159.466,5.617a2.628,2.628,0,1,0-2.628-2.628,2.628,2.628,0,0,0,2.628,2.628" transform="translate(-76.255 -0.176)" fill="#003526"/>
    <path id="Path_11" data-name="Path 11" d="M10.126,5.617A2.628,2.628,0,1,0,7.5,2.99a2.628,2.628,0,0,0,2.628,2.628" transform="translate(-3.646 -0.176)" fill="#003526"/>
    <path id="Path_12" data-name="Path 12" d="M23.117,5.617A2.628,2.628,0,1,0,20.489,2.99a2.628,2.628,0,0,0,2.628,2.628" transform="translate(-9.962 -0.176)" fill="#003526"/>
    <path id="Path_13" data-name="Path 13" d="M96.487,3.817A8.431,8.431,0,0,0,89.147,0c-5.505,0-9.616,3.963-9.616,9.8s4.11,9.836,9.616,9.836a8.362,8.362,0,0,0,7.45-4v7.885H59.715v2.509H96.6v.012h2.5V.147H96.487Zm-7.12,13.506c-4.11,0-7.193-3.009-7.193-7.524s3.083-7.524,7.193-7.524c4.074,0,7.157,3.009,7.157,7.524s-3.083,7.524-7.157,7.524" transform="translate(-29.034)" fill="#003526"/>
    <rect id="Rectangle_132" data-name="Rectangle 132" width="2.509" height="25.821" transform="translate(23.808 0.146)" fill="#003526"/>
    <path id="Path_14" data-name="Path 14" d="M46.168,111.56a2.033,2.033,0,0,0-2.183,2.061v1.833a1.965,1.965,0,0,0,2.221,1.947,1.836,1.836,0,0,0,2.046-1.719v-.3H47.3v.228c0,.571-.418.913-1.118.913a1.079,1.079,0,0,1-1.209-1.11v-1.84a1.077,1.077,0,0,1,1.179-1.118c.558,0,1.156.24,1.156.913v.221h.943v-.3c0-1.012-.857-1.719-2.084-1.719" transform="translate(-21.386 -54.241)" fill="#003526"/>
    <path id="Path_15" data-name="Path 15" d="M59.359,111.709l-2.069,5.674h1l.494-1.422h1.952l.495,1.422h1.027l-2.045-5.674Zm-.277,3.384.684-1.991.684,1.991Z" transform="translate(-27.855 -54.313)" fill="#003526"/>
    <path id="Path_16" data-name="Path 16" d="M74.415,111.753H72.354V117.4h.974V115.29H74.4a1.746,1.746,0,0,0,1.932-1.788,1.723,1.723,0,0,0-1.917-1.749m-.144,2.67h-.943v-1.8h.928c.5,0,1.095.153,1.095.882,0,.61-.364.92-1.08.92" transform="translate(-35.179 -54.335)" fill="#003526"/>
    <path id="Path_17" data-name="Path 17" d="M85.651,112.643h1.164v3.871H85.651v.889H88.96v-.889H87.8v-3.871H88.96v-.89H85.651Z" transform="translate(-41.644 -54.335)" fill="#003526"/>
    <path id="Path_18" data-name="Path 18" d="M97.452,112.635h1.567V117.4h.989v-4.769h1.559v-.882H97.452Z" transform="translate(-47.381 -54.335)" fill="#003526"/>
    <path id="Path_19" data-name="Path 19" d="M111.033,111.709l-2.068,5.674h1l.495-1.422h1.952l.494,1.422h1.027l-2.045-5.674Zm-.277,3.384.684-1.991.684,1.991Z" transform="translate(-52.979 -54.313)" fill="#003526"/>
    <path id="Path_20" data-name="Path 20" d="M125.01,111.753h-.981V117.4h3.621v-.89H125.01Z" transform="translate(-60.303 -54.334)" fill="#003526"/>
    <path id="Path_21" data-name="Path 21" d="M9.857,63c-3.343,0-5.952,1.36-7.348,3.711V63.147H.01V82.473H2.619V72.333c0-4.409,2.609-6.981,6.761-6.981,3.674,0,5.8,2.094,5.8,6.172v10.95h2.609V71.267C17.794,65.719,14.56,63,9.857,63" transform="translate(-0.005 -30.631)" fill="#003526"/>
    <path id="Path_22" data-name="Path 22" d="M56.783,82.612V63.286H54.174V73.427c0,4.409-2.535,7.018-6.577,7.018-3.674,0-5.8-2.094-5.8-6.209V63.286H39.183V74.492c0,5.548,3.233,8.3,8.157,8.3a7.687,7.687,0,0,0,6.944-3.711v3.527Z" transform="translate(-19.051 -30.77)" fill="#003526"/>
    <path id="Path_23" data-name="Path 23" d="M105.372,73.757c0,4.556-1.727,6.687-5.475,6.687-3.821,0-5.585-2.131-5.585-6.761v-10.4H91.7v10.4c0,4.629-1.8,6.761-5.585,6.761-3.821,0-5.511-2.131-5.511-6.687V63.285H78V73.977c0,5.732,2.756,8.818,8.12,8.818,3.417,0,5.658-1.25,6.871-4.079,1.249,2.9,3.6,4.079,6.87,4.079,5.328,0,8.12-3.086,8.12-8.818V63.285h-2.609Z" transform="translate(-37.923 -30.769)" fill="#003526"/>
    <path id="Path_24" data-name="Path 24" d="M157.89,66.821A8.442,8.442,0,0,0,150.542,63c-5.512,0-9.627,3.968-9.627,9.81s4.115,9.847,9.627,9.847a8.372,8.372,0,0,0,7.459-4v3.821h2.5V63.147H157.89Zm-7.128,13.521c-4.115,0-7.2-3.013-7.2-7.532s3.086-7.532,7.2-7.532c4.079,0,7.165,3.013,7.165,7.532s-3.086,7.532-7.165,7.532" transform="translate(-68.513 -30.631)" fill="#003526"/>
    <path id="Path_25" data-name="Path 25" d="M157.556,76.973a2.631,2.631,0,1,0,2.631,2.631,2.631,2.631,0,0,0-2.631-2.631" transform="translate(-75.325 -37.424)" fill="#003526"/>
  </g>
</svg>
